<svg width="303" height="303" viewBox="0 0 303 303" fill="none" xmlns="http://www.w3.org/2000/svg">
<path fill-rule="evenodd" clip-rule="evenodd" d="M132.32 129.472C132.108 129.881 131.487 134.017 133.926 134.017C134.352 134.018 134.764 133.865 135.087 133.587C135.41 133.309 135.621 132.924 135.683 132.502C136.198 127.866 133.168 127.881 132.32 129.472ZM154.288 129.412C154.424 131.017 154.606 132.442 156.212 132.442C156.638 132.442 157.05 132.29 157.373 132.012C157.695 131.733 157.907 131.348 157.969 130.927C158.002 129.952 157.895 128.977 157.651 128.033C156.772 126.412 154.06 126.806 154.288 129.412ZM143.683 144.046C144.152 144.046 148.228 143.849 149.182 143.107C149.47 142.895 149.44 142.486 149.44 142.107C149.349 137.81 148.933 133.525 148.197 129.29C148.197 129.063 148 129.018 147.879 129.048C147.758 129.078 147.697 129.29 147.712 129.654C147.712 130.896 147.606 131.32 148.046 138.274C148.334 142.819 148.212 141.547 148.303 142.304C146.883 142.825 145.424 143.235 143.94 143.531C142.955 143.743 143.652 144.046 143.683 144.046ZM148.47 154.53C147.346 155.133 146.106 155.489 144.834 155.576C144.77 155.576 144.708 155.601 144.663 155.647C144.617 155.692 144.592 155.754 144.592 155.818C144.592 155.882 144.617 155.944 144.663 155.989C144.708 156.035 144.77 156.06 144.834 156.06C145.546 156.316 146.306 156.408 147.058 156.33C147.811 156.251 148.536 156.004 149.179 155.607C149.823 155.209 150.368 154.672 150.775 154.034C151.182 153.397 151.44 152.675 151.53 151.924C151.538 151.894 151.54 151.861 151.536 151.83C151.531 151.798 151.521 151.768 151.504 151.741C151.488 151.713 151.467 151.689 151.441 151.67C151.416 151.651 151.387 151.637 151.356 151.629C151.325 151.621 151.293 151.619 151.262 151.624C151.23 151.628 151.2 151.639 151.172 151.655C151.145 151.671 151.121 151.693 151.102 151.718C151.083 151.743 151.069 151.772 151.061 151.803C150.447 152.921 149.555 153.86 148.47 154.53ZM80.5677 37.6934C84.4612 50.7073 98.2326 50.071 99.8385 51.0406C99.8385 51.1921 102.99 63.3272 104.262 64.9937C104.974 65.9179 106.686 65.5543 107.823 65.3422C110.489 64.8119 113.58 64.6453 115.837 62.8424C116.413 62.3728 116.079 60.4639 115.928 59.8124C115.446 57.0884 114.777 54.4005 113.928 51.7678C113.594 50.9735 113.311 50.1588 113.08 49.3286C114.125 48.4025 115.262 47.5852 116.473 46.8895C118.472 45.5277 120.25 43.8671 121.745 41.9657C124.638 37.7279 125.946 32.6066 125.439 27.5006C124.932 22.3947 122.643 17.6305 118.973 14.0443C107.747 3.03025 87.4458 6.62079 80.8555 20.5133C78.5982 25.331 79.0375 32.6333 80.5677 37.6934ZM115.14 62.1152C113.125 63.7363 110.156 63.9484 107.565 64.4786C106.868 64.6301 105.217 65.0392 104.777 64.4786C103.92 63.2412 103.303 61.8536 102.959 60.3881C106.884 59.8351 110.722 58.7864 114.382 57.2672C114.878 58.8359 115.133 60.4703 115.14 62.1152ZM114.216 56.6461C110.345 57.3675 106.543 58.4219 102.853 59.7973C102.462 58.039 101.956 56.3081 101.338 54.616C105.253 54.2061 109.091 53.2578 112.746 51.7981C113.358 53.3996 113.864 55.0393 114.261 56.7067L114.216 56.6461ZM81.81 20.983C88.1578 7.8631 107.565 4.54524 118.17 14.923C121.617 18.3038 123.773 22.7835 124.266 27.5864C124.758 32.3894 123.556 37.2134 120.867 41.2234C118.246 44.92 112.943 47.4652 112.125 48.7984C111.837 49.268 112.368 50.4649 112.701 51.3133C110.974 51.6466 109.08 52.0556 107.383 52.4344C106.929 50.3588 104.808 41.9809 104.02 40.0114C103.717 39.2236 103.444 39.2842 102.641 39.5114C98.2174 39.5114 93.3543 38.3903 91.7938 34.2241C91.6053 33.7357 91.4731 33.2274 91.3999 32.7091C91.1878 30.5275 92.9149 27.9823 94.8238 28.1641C94.5511 29.8306 94.8238 33.0121 96.2479 33.9665C97.672 34.921 99.2779 33.406 99.2779 32.0425C99.1971 31.0592 98.8775 30.1106 98.3468 29.2789C97.8162 28.4473 97.0905 27.7577 96.2328 27.2702C96.4709 26.7294 96.8239 26.2468 97.2671 25.8559C97.7103 25.4651 98.2333 25.1753 98.7997 25.0067C99.3661 24.838 99.9624 24.7946 100.547 24.8794C101.132 24.9642 101.692 25.1752 102.187 25.4977C100.99 27.8308 102.187 33.1787 104.308 31.9213C106.429 30.6638 105.732 27.5732 104.414 25.8613C103.777 25.028 103.641 25.2553 103.959 25.0129C106.429 23.21 109.231 25.3007 110.413 28.0429C112.11 31.8152 108.474 36.4663 106.171 37.8752C106.115 37.9094 106.075 37.9645 106.059 38.0284C106.043 38.0923 106.054 38.1599 106.088 38.2161C106.122 38.2724 106.177 38.3127 106.241 38.3284C106.305 38.344 106.372 38.3336 106.429 38.2994C109.247 36.6481 112.807 31.7849 111.186 27.6944C109.565 23.6039 105.489 22.0283 102.914 24.4675C102.265 24.0225 101.525 23.7287 100.748 23.6078C99.9711 23.4868 99.1768 23.5417 98.4237 23.7685C97.6706 23.9953 96.978 24.3882 96.397 24.9182C95.8159 25.4482 95.3611 26.1018 95.0662 26.8309C92.2483 26.4673 89.8698 29.7548 90.1879 32.7394C90.3591 34.0585 90.8577 35.3138 91.6383 36.3908C92.419 37.4679 93.4568 38.3323 94.6572 38.9054C96.0813 39.5872 101.141 40.8295 103.141 40.2538C103.838 41.7688 106.368 50.6618 106.823 52.5253C100.096 54.0403 101.46 54.7523 101.126 53.7676C100.732 52.5404 100.49 50.7376 100.157 50.6164C91.7938 48.7226 84.2491 47.3288 81.4312 37.4056C80.0526 32.603 79.689 25.4825 81.81 20.983ZM95.8692 28.4671C96.4432 28.8744 96.923 29.4005 97.2759 30.0095C97.6288 30.6186 97.8465 31.2964 97.9144 31.997C97.9144 32.4061 96.9903 33.512 96.3994 32.3C95.9471 31.0763 95.7863 29.7639 95.9298 28.4671H95.8692ZM103.02 26.1491C104.232 27.3308 104.989 30.0881 103.671 30.8911C103.215 30.2 102.919 29.415 102.806 28.5943C102.693 27.7735 102.766 26.9379 103.02 26.1491ZM57.57 83.9767C63.736 82.0526 71.205 83.7191 74.0835 90.5366C79.0678 102.081 65.8873 107.959 66.0237 108.565C66.3267 110.08 66.8721 112.731 67.0993 114.262C67.1174 114.39 67.1858 114.506 67.2895 114.584C67.3932 114.663 67.5237 114.696 67.6523 114.678C67.7809 114.66 67.897 114.592 67.9751 114.488C68.0533 114.384 68.087 114.254 68.0689 114.125C67.8871 112.61 67.6902 110.429 67.4781 108.853C69.6201 107.994 71.6022 106.78 73.3411 105.262C84.037 92.6425 72.0988 76.7198 56.8428 81.7042C54.4271 82.4086 52.2905 83.8474 50.7295 85.8211C49.1685 87.7947 48.2605 90.2052 48.1315 92.7182C47.6467 98.6873 52.4038 103.838 60.0849 103.172C60.2006 103.151 60.3055 103.091 60.3811 103.001C60.4567 102.911 60.4981 102.797 60.4981 102.679C60.4981 102.562 60.4567 102.448 60.3811 102.358C60.3055 102.268 60.2006 102.207 60.0849 102.187C53.2674 102.535 49.6162 97.642 50.2677 92.9455C50.4186 90.8822 51.2001 88.9152 52.5062 87.311C53.8124 85.7067 55.5802 84.5427 57.57 83.9767ZM170.725 44.4503C170.854 44.4845 170.991 44.4662 171.106 44.3994C171.221 44.3326 171.305 44.2229 171.339 44.0943C171.373 43.9657 171.355 43.8289 171.288 43.7138C171.221 43.5987 171.111 43.5149 170.983 43.4807C164.423 41.6324 162.529 35.83 164.65 31.5728C165.476 29.6715 166.867 28.0702 168.634 26.9862C170.401 25.9021 172.459 25.3878 174.528 25.5128C185.921 25.8007 190.92 36.2845 186.648 43.7686C183.815 48.8893 180.027 50.2679 175.179 50.9042C175.026 50.9258 174.884 50.9965 174.775 51.1059C174.666 51.2152 174.595 51.3571 174.573 51.5102C174.407 52.904 174.043 55.6462 173.77 57.2369C173.744 57.3635 173.77 57.4953 173.841 57.6032C173.912 57.7112 174.023 57.7865 174.149 57.8126C174.276 57.8388 174.408 57.8135 174.516 57.7425C174.623 57.6715 174.699 57.5605 174.725 57.4339C175.073 55.7977 175.543 53.8736 175.861 52.2526C178.163 52.1288 180.427 51.6166 182.557 50.7376C187.693 47.7076 190.814 42.9202 190.405 36.8602C189.451 22.6343 168.695 17.5439 162.726 30.8002C160.408 36.1936 163.226 42.7535 170.725 44.4503ZM254.899 115.534C254.725 112.726 253.723 110.032 252.02 107.792C250.382 105.949 248.383 104.46 246.148 103.418C243.912 102.376 241.487 101.802 239.022 101.732C236.512 101.616 234.028 102.283 231.914 103.64C229.799 104.997 228.159 106.977 227.22 109.307C224.841 114.807 227.704 121.215 235.173 123.033C235.24 123.063 235.312 123.078 235.385 123.077C235.458 123.076 235.53 123.06 235.596 123.028C235.662 122.996 235.72 122.95 235.766 122.894C235.812 122.837 235.845 122.771 235.863 122.701C235.881 122.63 235.883 122.556 235.87 122.484C235.856 122.413 235.827 122.345 235.784 122.285C235.742 122.226 235.687 122.177 235.623 122.141C235.559 122.106 235.489 122.084 235.416 122.079C228.901 120.109 226.962 114.504 229.098 110.171C229.924 108.27 231.315 106.668 233.082 105.584C234.849 104.5 236.907 103.986 238.976 104.111C241.077 104.169 243.145 104.653 245.053 105.533C246.962 106.414 248.672 107.672 250.081 109.232C251.5 111.084 252.343 113.313 252.505 115.64C253.581 129.002 239.188 129.048 239.052 130.108C238.87 131.623 238.537 134.29 238.249 135.835C238.223 135.962 238.248 136.093 238.319 136.201C238.39 136.309 238.501 136.385 238.628 136.411C238.754 136.437 238.886 136.412 238.994 136.341C239.102 136.27 239.177 136.159 239.203 136.032C239.567 134.411 240.021 132.472 240.34 130.851C242.645 130.721 244.913 130.209 247.051 129.336C252.111 126.366 255.308 121.655 254.899 115.534ZM73.8411 125.745C74.4925 123.049 72.5382 120.215 70.599 120.443C69.3413 120.307 68.0748 120.271 66.8115 120.337C63.5239 121.124 61.9786 125.427 65.0692 127.533C68.6143 129.896 73.2048 128.26 73.8411 125.745ZM71.4928 125.442C70.9548 125.891 70.2958 126.171 69.5991 126.245C65.4783 126.821 64.5996 123.215 67.372 122.033L70.6293 121.427C72.0382 121.549 72.3564 124.564 71.4928 125.366V125.442ZM172.513 63.0242C168.983 61.7365 165.165 65.7209 167.665 69.0842C170.165 72.4475 175.119 72.4475 176.543 70.2053C177.967 67.9631 177.103 64.5695 175.195 64.1453C175.028 64.0696 173.71 63.4636 172.513 63.0242ZM174.422 69.0842C173.744 69.3149 173.018 69.3663 172.315 69.2336C171.611 69.1009 170.954 68.7885 170.407 68.3267C169.96 68.0053 169.592 67.5855 169.332 67.0996C168.892 65.8724 170.468 64.615 171.619 64.5392L174.892 65.0089C176.164 65.6906 175.528 68.66 174.422 69.1297V69.0842ZM239.628 142.834C239.325 142.698 237.764 142.047 236.961 141.744C233.416 140.456 229.613 144.44 232.113 147.804C234.613 151.167 239.552 151.167 240.991 148.925C242.43 146.683 241.552 143.259 239.628 142.834ZM238.855 147.849C238.177 148.078 237.451 148.129 236.748 147.996C236.045 147.864 235.388 147.552 234.84 147.092C234.396 146.76 234.029 146.336 233.764 145.849C233.34 144.637 234.901 143.38 236.052 143.304L239.325 143.774C240.597 144.41 239.961 147.364 238.855 147.849Z" fill="#6C6C6C"/>
<path fill-rule="evenodd" clip-rule="evenodd" d="M227.25 226.402C224.22 211.494 212.433 188.527 198.283 182.664L195.435 176.71C195.415 176.667 195.385 176.628 195.349 176.598C195.313 176.567 195.27 176.544 195.224 176.531C195.178 176.518 195.13 176.515 195.083 176.523C195.035 176.53 194.99 176.547 194.95 176.574L191.92 178.528C190.958 172.097 188.02 166.125 183.512 161.439C186.663 156.576 191.708 155.091 196.92 154.864C201.238 154.682 204.419 154.424 206.919 150.728C211.873 143.425 210.706 136.305 204.889 129.518C196.026 119.185 192.542 122.276 188.224 116.564C180.012 105.838 178.149 89.9762 166.059 81.7194C150.606 71.2508 142.274 79.6893 139.032 82.2951C134.29 79.4166 123.715 80.4165 119.17 84.3101C115.307 87.6128 110.186 91.8851 108.201 96.6573C103.975 106.732 104.429 118.655 98.2479 127.791C96.7329 130.063 94.1423 131.593 92.3091 133.745C89.793 136.899 87.6525 140.336 85.931 143.986C83.6888 148.228 81.9768 152.94 84.0221 157.333C86.7642 163.211 92.9 168.817 99.4448 168.393C103.232 168.135 108.247 165.863 111.807 167.362C113.928 168.241 114.746 170.286 116.352 171.998C119.988 176.043 128.472 177.27 133.169 174.468C128.003 181.043 120.125 180.816 106.383 188.391C85.2947 199.995 77.5985 213.176 75.3411 226.675C74.4776 230.874 73.8404 235.117 73.4322 239.385C72.1293 261.398 78.8105 289.305 100.475 293.925C106.414 295.198 113.216 296.016 119.094 294.547C130.23 291.774 143.516 284.275 153.273 278.185C157.818 275.352 174.634 264.004 182.452 262.52C182.922 266.563 183.942 270.523 185.482 274.291C191.739 287.153 201.753 294.759 215.782 291.456C224.872 289.32 227.462 279.639 227.705 270.367C232.265 260.58 228.644 233.522 227.25 226.402ZM174.831 155.47C177.528 155.97 179.376 158.5 181.376 160.56C186.663 165.847 190.299 171.513 191.39 178.74C187.012 181.528 184.164 183.285 184.103 183.376C184.042 183.467 181.937 178.104 180.664 177.452C178.76 176.507 177.033 175.241 175.558 173.71C174.422 172.453 173.028 170.241 173.21 168.574C174.015 168.146 174.894 167.874 175.801 167.771V166.832C171.119 166.968 169.514 171.241 169.089 172.195C168.786 172.877 168.362 173.559 167.393 173.453C166.423 173.347 166.074 172.226 166.438 171.226C166.802 170.226 167.68 165.832 173.877 164.878C173.954 164.867 174.029 164.841 174.096 164.801C174.164 164.761 174.223 164.708 174.27 164.646C174.317 164.583 174.352 164.512 174.371 164.436C174.391 164.36 174.395 164.281 174.384 164.204C174.373 164.126 174.347 164.051 174.307 163.984C174.268 163.916 174.215 163.857 174.152 163.81C174.09 163.763 174.018 163.729 173.943 163.709C173.867 163.69 173.788 163.685 173.71 163.696C172.413 163.861 171.156 164.256 169.998 164.863C168.957 165.371 168.033 166.09 167.285 166.974C166.536 167.858 165.98 168.888 165.65 169.998C164.923 172.074 162.378 171.15 162.984 169.362C163.594 167.623 164.501 166.003 165.665 164.575C166.958 163.342 168.512 162.415 170.21 161.863C171.544 161.318 172.68 161.575 172.983 161.136C173.286 160.696 172.574 159.227 172.21 158.787C170.256 156.454 164.635 158.469 162.484 155.864C161.105 154.152 163.999 154.091 165.165 153.939C168.438 153.576 171.544 154.848 174.831 155.47ZM180.391 193.011C176.06 194.423 171.642 195.551 167.165 196.39C168.68 187.769 169.71 180.376 169.559 177.695C173.089 178.376 177.134 178.861 181.558 179.588C182.755 181.573 183.406 183.24 183.694 183.709L180.755 185.573C180.603 185.77 180.634 184.952 180.391 193.011ZM163.938 236.78C164.609 239.689 165.085 242.64 165.362 245.612C159.151 245.218 154.409 245.294 152.076 245.203C152.167 240.946 152.212 239.628 152.288 238.734C156.111 237.765 160.008 237.111 163.938 236.78ZM140.107 199.465C148.702 199.526 157.285 198.827 165.756 197.375C163.06 211.919 158.954 229.402 157.015 232.901C152.561 220.751 153.015 220.706 140.107 199.465ZM158.287 232.704C160.742 227.205 164.469 210.797 166.953 197.132C171.475 196.285 175.935 195.13 180.3 193.678C179.831 210.04 179.694 230.462 180.679 246.87C177.801 246.612 173.619 246.248 169.559 245.93C169.301 243.476 168.286 234.931 167.423 232.689C167.196 232.083 166.923 231.841 165.908 231.81C163.374 231.921 160.852 232.22 158.363 232.704H158.287ZM163.696 174.907C162.162 174.01 160.936 172.668 160.181 171.059C160.882 171.355 161.614 171.573 162.363 171.71C162.647 172.03 163.013 172.266 163.422 172.391C163.831 172.517 164.266 172.528 164.681 172.422C165.362 172.21 164.923 172.119 165.287 173.074C165.426 173.458 165.662 173.801 165.97 174.069C166.279 174.338 166.651 174.523 167.051 174.608C167.451 174.693 167.866 174.675 168.257 174.555C168.648 174.435 169.003 174.217 169.286 173.922C169.877 173.392 169.923 172.756 170.635 171.392C171.332 171.256 172.013 171.074 172.68 170.877C174.483 175.604 180.134 177.892 180.528 178.24C173.877 177.255 167.983 176.634 163.772 174.907H163.696ZM134.653 173.089C138.289 168.877 137.547 165.863 133.805 162.878C126.23 156.939 127.169 158.53 123.988 151.894C120.246 141.123 123.473 124.155 126.245 113.11C127.003 110.08 132.169 106.838 135.926 107.323C141.138 107.99 138.956 110.732 143.41 112.292C144.183 112.518 144.983 112.64 145.789 112.656C145.836 112.671 145.887 112.676 145.936 112.672C145.986 112.667 146.035 112.653 146.079 112.63C146.123 112.606 146.163 112.575 146.195 112.536C146.227 112.498 146.251 112.454 146.266 112.406C146.281 112.358 146.286 112.308 146.282 112.258C146.277 112.208 146.263 112.16 146.24 112.115C146.216 112.071 146.185 112.032 146.146 112C146.108 111.968 146.064 111.943 146.016 111.929C143.653 110.511 141.475 108.807 139.532 106.853C140.456 103.081 142.804 101.021 147.213 100.99C150.243 100.99 152.636 103.293 154.788 105.263C157.394 107.641 160.196 114.065 159.984 117.595C159.505 121.685 160.464 125.815 162.696 129.275C164.211 131.911 167.059 134.199 168.756 136.426C169.695 137.668 169.15 143.213 168.605 145.652C167.892 147.789 166.377 151.864 166.029 152.788C159.696 153.015 159.969 156.409 162.999 157.863C160.166 161.257 153.242 165.029 158.196 169.786C159.257 172.013 160.954 175.059 163.226 175.983C164.839 176.636 166.507 177.143 168.211 177.498C168.544 179.846 167.453 187.618 165.787 196.662C157.092 198.109 148.285 198.773 139.471 198.647C134.002 189.693 128.563 181.209 127.184 179.846C130.245 178.29 132.846 175.961 134.729 173.089H134.653ZM124.321 181.073C127.351 179.937 125.836 180.134 126.563 180.694C127.29 181.255 132.29 189.178 138.092 198.587C131.214 198.48 123.473 197.965 120.549 197.632C121.427 196.935 119.155 184.967 118.276 183.452C120.473 182.573 122.503 181.8 124.397 181.073H124.321ZM117.155 183.921C118.401 188.382 119.247 192.945 119.685 197.556C113.148 196.619 106.735 194.958 100.566 192.602C105.853 189.221 111.43 186.316 117.231 183.921H117.155ZM118.534 293.456C112.853 294.88 106.202 294.047 100.475 292.82C91.5213 290.895 85.325 284.911 81.2951 277.245C74.8866 265.125 72.9777 247.112 74.9321 234.492C75.326 231.962 75.8259 229.462 76.2501 226.917C78.659 212.479 87.4308 201.601 99.672 193.375C111.686 197.784 119.761 199.329 138.638 199.435C151.712 220.645 152 222.766 155.742 233.144C154.591 233.356 149.258 234.431 148.349 235.174C147.985 235.462 147.985 236.037 148.349 245.142C134.562 245.415 121.079 247.566 108.398 255.747C106.883 244.824 108.626 241.522 112.156 235.265C117.701 225.432 116.701 223.614 113.201 218.024C112.624 217.269 112.211 216.402 111.989 215.479C111.989 215.115 110.474 214.615 112.61 218.372C115.64 223.887 116.458 225.19 111.095 234.659C107.171 241.597 105.565 245.158 107.929 256.066C106.868 256.778 105.656 257.581 104.49 258.52C102.708 259.775 101.035 261.179 99.4902 262.716C99.4601 262.775 99.4543 262.843 99.4742 262.905C99.4941 262.968 99.538 263.02 99.5963 263.05C99.6545 263.08 99.7224 263.086 99.7849 263.066C99.8474 263.046 99.8994 263.002 99.9296 262.944C100.399 262.11 108.232 256.884 110.338 255.808C122.094 249.884 135.093 244.764 156.378 246.173C156.11 255.18 157.043 264.182 159.151 272.943C148.213 279.851 132.669 289.941 118.61 293.456H118.534ZM160.09 272.337C158.144 263.793 157.284 255.038 157.53 246.279C180.528 247.794 173.316 247.309 180.74 247.794C181.012 252.218 181.421 257.02 182.027 261.429C176.089 262.535 165.408 269.049 160.166 272.337H160.09ZM215.145 290.365C201.768 293.532 192.269 286.229 186.239 273.867C179.573 260.232 180.679 201.011 181.058 185.921L194.905 177.346C213.6 217.721 215.842 221.539 220.039 234.916C225.462 251.96 232.613 286.335 215.221 290.365H215.145ZM227.356 267.186C227.005 259.073 225.755 251.025 223.629 243.188C218.827 224.508 213.63 215.145 199.253 184.921L199.677 184.694C212.373 191.481 223.129 212.555 225.947 226.629C227.493 233.977 230.447 258.005 227.432 267.186H227.356Z" fill="#6C6C6C"/>
</svg>
