<svg width="44" height="44" viewBox="0 0 44 44" fill="none" xmlns="http://www.w3.org/2000/svg">
<rect width="44" height="44" rx="22" fill="#FFF9F9"/>
<path d="M28.675 13.825C28.3783 13.825 28.0883 13.913 27.8416 14.0778C27.595 14.2426 27.4027 14.4769 27.2892 14.751C27.1756 15.0251 27.1459 15.3267 27.2038 15.6176C27.2617 15.9086 27.4046 16.1759 27.6143 16.3857C27.8241 16.5954 28.0914 16.7383 28.3824 16.7962C28.6733 16.8541 28.9749 16.8244 29.249 16.7108C29.5231 16.5973 29.7574 16.405 29.9222 16.1584C30.087 15.9117 30.175 15.6217 30.175 15.325C30.175 14.9272 30.017 14.5456 29.7357 14.2643C29.4544 13.983 29.0728 13.825 28.675 13.825ZM34.425 16.85C34.4007 15.8129 34.2064 14.7868 33.85 13.8125C33.5322 12.9789 33.0375 12.2241 32.4 11.6C31.781 10.9593 31.0245 10.4677 30.1875 10.1625C29.2158 9.7952 28.1886 9.59651 27.15 9.575C25.825 9.5 25.4 9.5 22 9.5C18.6 9.5 18.175 9.5 16.85 9.575C15.8114 9.59651 14.7842 9.7952 13.8125 10.1625C12.9771 10.4708 12.2212 10.962 11.6 11.6C10.9593 12.219 10.4677 12.9755 10.1625 13.8125C9.7952 14.7842 9.59651 15.8114 9.575 16.85C9.5 18.175 9.5 18.6 9.5 22C9.5 25.4 9.5 25.825 9.575 27.15C9.59651 28.1886 9.7952 29.2158 10.1625 30.1875C10.4677 31.0245 10.9593 31.781 11.6 32.4C12.2212 33.038 12.9771 33.5292 13.8125 33.8375C14.7842 34.2048 15.8114 34.4035 16.85 34.425C18.175 34.5 18.6 34.5 22 34.5C25.4 34.5 25.825 34.5 27.15 34.425C28.1886 34.4035 29.2158 34.2048 30.1875 33.8375C31.0245 33.5323 31.781 33.0407 32.4 32.4C33.0403 31.7782 33.5354 31.0227 33.85 30.1875C34.2064 29.2132 34.4007 28.1871 34.425 27.15C34.425 25.825 34.5 25.4 34.5 22C34.5 18.6 34.5 18.175 34.425 16.85ZM32.175 27C32.1659 27.7935 32.0222 28.5796 31.75 29.325C31.5504 29.869 31.2298 30.3605 30.8125 30.7625C30.4071 31.1756 29.9165 31.4955 29.375 31.7C28.6296 31.9722 27.8435 32.1159 27.05 32.125C25.8 32.1875 25.3375 32.2 22.05 32.2C18.7625 32.2 18.3 32.2 17.05 32.125C16.2261 32.1404 15.4057 32.0136 14.625 31.75C14.1072 31.5351 13.6392 31.216 13.25 30.8125C12.8351 30.4109 12.5186 29.919 12.325 29.375C12.0198 28.6189 11.8506 27.8149 11.825 27C11.825 25.75 11.75 25.2875 11.75 22C11.75 18.7125 11.75 18.25 11.825 17C11.8306 16.1888 11.9787 15.3849 12.2625 14.625C12.4826 14.0974 12.8203 13.6271 13.25 13.25C13.6298 12.8202 14.0991 12.4789 14.625 12.25C15.3869 11.9751 16.19 11.8313 17 11.825C18.25 11.825 18.7125 11.75 22 11.75C25.2875 11.75 25.75 11.75 27 11.825C27.7935 11.8341 28.5796 11.9778 29.325 12.25C29.893 12.4608 30.4029 12.8036 30.8125 13.25C31.2221 13.634 31.5422 14.1034 31.75 14.625C32.0278 15.3862 32.1716 16.1897 32.175 17C32.2375 18.25 32.25 18.7125 32.25 22C32.25 25.2875 32.2375 25.75 32.175 27ZM22 15.5875C20.7323 15.59 19.4937 15.9682 18.4408 16.6743C17.3879 17.3804 16.568 18.3827 16.0845 19.5547C15.6011 20.7266 15.4759 22.0156 15.7247 23.2587C15.9736 24.5017 16.5853 25.6432 17.4826 26.5387C18.3799 27.4343 19.5225 28.0438 20.7661 28.2902C22.0096 28.5366 23.2983 28.4089 24.4693 27.9232C25.6403 27.4375 26.6411 26.6155 27.3452 25.5613C28.0492 24.507 28.425 23.2677 28.425 22C28.4267 21.1564 28.2615 20.3208 27.939 19.5412C27.6166 18.7616 27.1432 18.0535 26.5461 17.4576C25.949 16.8616 25.2399 16.3896 24.4597 16.0687C23.6796 15.7477 22.8436 15.5842 22 15.5875ZM22 26.1625C21.1767 26.1625 20.372 25.9184 19.6874 25.461C19.0029 25.0036 18.4694 24.3535 18.1544 23.5929C17.8393 22.8323 17.7569 21.9954 17.9175 21.1879C18.0781 20.3805 18.4745 19.6388 19.0567 19.0567C19.6388 18.4745 20.3805 18.0781 21.1879 17.9175C21.9954 17.7569 22.8323 17.8393 23.5929 18.1544C24.3535 18.4694 25.0036 19.0029 25.461 19.6874C25.9184 20.372 26.1625 21.1767 26.1625 22C26.1625 22.5466 26.0548 23.0879 25.8456 23.5929C25.6365 24.0979 25.3299 24.5568 24.9433 24.9433C24.5568 25.3299 24.0979 25.6365 23.5929 25.8456C23.0879 26.0548 22.5466 26.1625 22 26.1625Z" fill="#181818"/>
</svg>
