<svg width="40" height="40" viewBox="0 0 40 40" fill="none" xmlns="http://www.w3.org/2000/svg">
<path d="M36.3265 12.5765L16.3265 32.5765C16.1523 32.7513 15.9453 32.89 15.7174 32.9847C15.4895 33.0793 15.2451 33.128 14.9984 33.128C14.7516 33.128 14.5072 33.0793 14.2793 32.9847C14.0514 32.89 13.8444 32.7513 13.6702 32.5765L4.92024 23.8265C4.74583 23.6521 4.60748 23.4451 4.51309 23.2172C4.4187 22.9893 4.37012 22.7451 4.37012 22.4984C4.37012 22.2518 4.4187 22.0075 4.51309 21.7796C4.60748 21.5518 4.74583 21.3447 4.92024 21.1703C5.09466 20.9959 5.30171 20.8575 5.52959 20.7631C5.75747 20.6687 6.00171 20.6202 6.24837 20.6202C6.49503 20.6202 6.73927 20.6687 6.96715 20.7631C7.19503 20.8575 7.40208 20.9959 7.57649 21.1703L14.9999 28.5937L33.6734 9.92342C34.0256 9.57118 34.5033 9.37329 35.0015 9.37329C35.4996 9.37329 35.9774 9.57118 36.3296 9.92342C36.6819 10.2757 36.8797 10.7534 36.8797 11.2515C36.8797 11.7497 36.6819 12.2274 36.3296 12.5797L36.3265 12.5765Z" fill="#E6EB01"/>
</svg>
