<svg width="40" height="40" viewBox="0 0 40 40" fill="none" xmlns="http://www.w3.org/2000/svg">
<path opacity="0.2" d="M32.5 13.75H23.75V5L32.5 13.75Z" fill="#E6EB01"/>
<path d="M33.3844 12.8656L24.6344 4.11563C24.5182 3.99958 24.3803 3.90756 24.2286 3.84483C24.0768 3.78209 23.9142 3.74987 23.75 3.75H8.75C8.08696 3.75 7.45107 4.01339 6.98223 4.48223C6.51339 4.95107 6.25 5.58696 6.25 6.25V33.75C6.25 34.413 6.51339 35.0489 6.98223 35.5178C7.45107 35.9866 8.08696 36.25 8.75 36.25H31.25C31.913 36.25 32.5489 35.9866 33.0178 35.5178C33.4866 35.0489 33.75 34.413 33.75 33.75V13.75C33.7501 13.5858 33.7179 13.4232 33.6552 13.2714C33.5924 13.1197 33.5004 12.9818 33.3844 12.8656ZM25 8.01719L29.4828 12.5H25V8.01719ZM31.25 33.75H8.75V6.25H22.5V13.75C22.5 14.0815 22.6317 14.3995 22.8661 14.6339C23.1005 14.8683 23.4185 15 23.75 15H31.25V33.75ZM24.1344 26.1172C24.8721 24.9449 25.152 23.542 24.9207 22.1764C24.6895 20.8108 23.9631 19.5783 22.8806 18.7143C21.798 17.8504 20.4351 17.4156 19.0522 17.493C17.6693 17.5704 16.3634 18.1546 15.384 19.134C14.4046 20.1134 13.8204 21.4193 13.743 22.8022C13.6656 24.1851 14.1004 25.548 14.9643 26.6306C15.8283 27.7131 17.0608 28.4395 18.4264 28.6707C19.792 28.902 21.1949 28.6221 22.3672 27.8844L24.1156 29.6344C24.2318 29.7505 24.3696 29.8426 24.5214 29.9055C24.6731 29.9683 24.8358 30.0007 25 30.0007C25.1642 30.0007 25.3269 29.9683 25.4786 29.9055C25.6304 29.8426 25.7682 29.7505 25.8844 29.6344C26.0005 29.5182 26.0926 29.3804 26.1555 29.2286C26.2183 29.0769 26.2507 28.9142 26.2507 28.75C26.2507 28.5858 26.2183 28.4231 26.1555 28.2714C26.0926 28.1196 26.0005 27.9818 25.8844 27.8656L24.1344 26.1172ZM16.25 23.125C16.25 22.5069 16.4333 21.9027 16.7767 21.3888C17.12 20.8749 17.6081 20.4744 18.1791 20.2379C18.7501 20.0014 19.3785 19.9395 19.9847 20.06C20.5908 20.1806 21.1477 20.4783 21.5847 20.9153C22.0217 21.3523 22.3194 21.9092 22.44 22.5153C22.5605 23.1215 22.4986 23.7499 22.2621 24.3209C22.0256 24.8919 21.6251 25.38 21.1112 25.7233C20.5973 26.0667 19.9931 26.25 19.375 26.25C18.5462 26.25 17.7513 25.9208 17.1653 25.3347C16.5792 24.7487 16.25 23.9538 16.25 23.125Z" fill="#E6EB01"/>
</svg>
