<svg width="30" height="30" viewBox="0 0 30 30" fill="none" xmlns="http://www.w3.org/2000/svg">
<path d="M21.5626 18.7499C20.8608 18.7535 20.1688 18.9145 19.5377 19.2212C18.9065 19.5279 18.3522 19.9723 17.9157 20.5218L11.0626 16.2374C11.3123 15.4314 11.3123 14.5685 11.0626 13.7624L17.9157 9.47807C18.6113 10.3394 19.5893 10.9267 20.6764 11.136C21.7635 11.3452 22.8896 11.163 23.8553 10.6215C24.8209 10.08 25.5637 9.21416 25.9521 8.17743C26.3405 7.1407 26.3494 5.99996 25.9772 4.95729C25.6051 3.91462 24.8759 3.03732 23.9189 2.48079C22.9618 1.92426 21.8387 1.72443 20.7484 1.9167C19.6581 2.10897 18.6711 2.68092 17.9622 3.53125C17.2532 4.38157 16.8681 5.45538 16.8751 6.56245C16.8795 6.98168 16.9426 7.39822 17.0626 7.79995L10.2095 12.0843C9.60444 11.3227 8.77746 10.7681 7.84316 10.4975C6.90886 10.2269 5.91351 10.2536 4.99509 10.574C4.07667 10.8944 3.28066 11.4926 2.71741 12.2856C2.15416 13.0786 1.85156 14.0272 1.85156 14.9999C1.85156 15.9726 2.15416 16.9213 2.71741 17.7143C3.28066 18.5073 4.07667 19.1055 4.99509 19.4259C5.91351 19.7463 6.90886 19.773 7.84316 19.5024C8.77746 19.2318 9.60444 18.6772 10.2095 17.9156L17.0626 22.1999C16.9426 22.6017 16.8795 23.0182 16.8751 23.4374C16.8751 24.3645 17.15 25.2708 17.6651 26.0417C18.1801 26.8125 18.9122 27.4133 19.7688 27.7681C20.6253 28.1229 21.5678 28.2157 22.4771 28.0349C23.3864 27.854 24.2216 27.4076 24.8771 26.752C25.5327 26.0965 25.9791 25.2612 26.16 24.3519C26.3409 23.4426 26.2481 22.5001 25.8933 21.6436C25.5385 20.7871 24.9377 20.055 24.1668 19.5399C23.396 19.0249 22.4897 18.7499 21.5626 18.7499ZM21.5626 3.74995C22.1188 3.74995 22.6626 3.9149 23.1251 4.22394C23.5876 4.53298 23.9481 4.97223 24.161 5.48615C24.3739 6.00007 24.4296 6.56557 24.321 7.11114C24.2125 7.65671 23.9447 8.15785 23.5513 8.55119C23.158 8.94452 22.6568 9.21239 22.1113 9.32091C21.5657 9.42943 21.0002 9.37373 20.4863 9.16086C19.9724 8.94799 19.5331 8.5875 19.2241 8.12499C18.915 7.66248 18.7501 7.11871 18.7501 6.56245C18.7501 5.81653 19.0464 5.10116 19.5738 4.57371C20.1013 4.04626 20.8167 3.74995 21.5626 3.74995ZM6.56258 17.8124C6.00632 17.8124 5.46255 17.6475 5.00004 17.3385C4.53753 17.0294 4.17704 16.5902 3.96417 16.0762C3.7513 15.5623 3.6956 14.9968 3.80412 14.4513C3.91264 13.9057 4.18051 13.4045 4.57384 13.0112C4.96718 12.6179 5.46832 12.35 6.01389 12.2415C6.55946 12.133 7.12496 12.1887 7.63888 12.4015C8.1528 12.6144 8.59205 12.9749 8.90109 13.4374C9.21013 13.8999 9.37508 14.4437 9.37508 14.9999C9.37508 15.7459 9.07877 16.4612 8.55132 16.9887C8.02387 17.5161 7.3085 17.8124 6.56258 17.8124ZM21.5626 26.2499C21.0063 26.2499 20.4626 26.085 20 25.776C19.5375 25.4669 19.177 25.0277 18.9642 24.5137C18.7513 23.9998 18.6956 23.4343 18.8041 22.8888C18.9126 22.3432 19.1805 21.842 19.5738 21.4487C19.9672 21.0554 20.4683 20.7875 21.0139 20.679C21.5595 20.5705 22.125 20.6262 22.6389 20.839C23.1528 21.0519 23.592 21.4124 23.9011 21.8749C24.2101 22.3374 24.3751 22.8812 24.3751 23.4374C24.3751 24.1834 24.0788 24.8987 23.5513 25.4262C23.0239 25.9536 22.3085 26.2499 21.5626 26.2499Z" fill="#181818"/>
</svg>
