<svg width="44" height="44" viewBox="0 0 44 44" fill="none" xmlns="http://www.w3.org/2000/svg">
<rect width="44" height="44" rx="22" fill="#FFF9F9"/>
<path d="M35.125 21.918C35.125 21.8535 35.125 21.7803 35.1221 21.6953C35.1191 21.458 35.1133 21.1914 35.1074 20.9072C35.084 20.0898 35.043 19.2754 34.9785 18.5078C34.8906 17.4502 34.7617 16.5684 34.5859 15.9062C34.4004 15.2153 34.0368 14.5851 33.5315 14.0787C33.0261 13.5723 32.3966 13.2074 31.7061 13.0205C30.877 12.7979 29.2539 12.6602 26.9688 12.5752C25.8818 12.5342 24.7187 12.5078 23.5557 12.4932C23.1484 12.4873 22.7705 12.4844 22.4307 12.4814H21.5693C21.2295 12.4844 20.8516 12.4873 20.4443 12.4932C19.2812 12.5078 18.1182 12.5342 17.0312 12.5752C14.7461 12.6631 13.1201 12.8008 12.2939 13.0205C11.6031 13.207 10.9734 13.5717 10.468 14.0782C9.96256 14.5846 9.5991 15.2151 9.41406 15.9062C9.23535 16.5684 9.10938 17.4502 9.02148 18.5078C8.95703 19.2754 8.91602 20.0898 8.89258 20.9072C8.88379 21.1914 8.88086 21.458 8.87793 21.6953C8.87793 21.7803 8.875 21.8535 8.875 21.918V22.082C8.875 22.1465 8.875 22.2197 8.87793 22.3047C8.88086 22.542 8.88672 22.8086 8.89258 23.0928C8.91602 23.9102 8.95703 24.7246 9.02148 25.4922C9.10938 26.5498 9.23828 27.4316 9.41406 28.0938C9.78906 29.4971 10.8906 30.6045 12.2939 30.9795C13.1201 31.2021 14.7461 31.3398 17.0312 31.4248C18.1182 31.4658 19.2812 31.4922 20.4443 31.5068C20.8516 31.5127 21.2295 31.5156 21.5693 31.5186H22.4307C22.7705 31.5156 23.1484 31.5127 23.5557 31.5068C24.7187 31.4922 25.8818 31.4658 26.9688 31.4248C29.2539 31.3369 30.8799 31.1992 31.7061 30.9795C33.1094 30.6045 34.2109 29.5 34.5859 28.0938C34.7646 27.4316 34.8906 26.5498 34.9785 25.4922C35.043 24.7246 35.084 23.9102 35.1074 23.0928C35.1162 22.8086 35.1191 22.542 35.1221 22.3047C35.1221 22.2197 35.125 22.1465 35.125 22.082V21.918ZM33.0156 22.0703C33.0156 22.1318 33.0156 22.1992 33.0127 22.2783C33.0098 22.5068 33.0039 22.7588 32.998 23.0312C32.9775 23.8105 32.9365 24.5898 32.875 25.3135C32.7959 26.2568 32.6846 27.0303 32.5469 27.5488C32.3652 28.2256 31.832 28.7617 31.1582 28.9404C30.543 29.1045 28.9932 29.2363 26.8867 29.3154C25.8203 29.3564 24.6719 29.3828 23.5264 29.3975C23.125 29.4033 22.7529 29.4062 22.4189 29.4062H21.5811L20.4736 29.3975C19.3281 29.3828 18.1826 29.3564 17.1133 29.3154C15.0068 29.2334 13.4541 29.1045 12.8418 28.9404C12.168 28.7588 11.6348 28.2256 11.4531 27.5488C11.3154 27.0303 11.2041 26.2568 11.125 25.3135C11.0635 24.5898 11.0254 23.8105 11.002 23.0312C10.9932 22.7588 10.9902 22.5039 10.9873 22.2783C10.9873 22.1992 10.9844 22.1289 10.9844 22.0703V21.9297C10.9844 21.8682 10.9844 21.8008 10.9873 21.7217C10.9902 21.4932 10.9961 21.2412 11.002 20.9687C11.0225 20.1895 11.0635 19.4102 11.125 18.6865C11.2041 17.7432 11.3154 16.9697 11.4531 16.4512C11.6348 15.7744 12.168 15.2383 12.8418 15.0596C13.457 14.8955 15.0068 14.7637 17.1133 14.6846C18.1797 14.6436 19.3281 14.6172 20.4736 14.6025C20.875 14.5967 21.2471 14.5938 21.5811 14.5938H22.4189L23.5264 14.6025C24.6719 14.6172 25.8174 14.6436 26.8867 14.6846C28.9932 14.7666 30.5459 14.8955 31.1582 15.0596C31.832 15.2412 32.3652 15.7744 32.5469 16.4512C32.6846 16.9697 32.7959 17.7432 32.875 18.6865C32.9365 19.4102 32.9746 20.1895 32.998 20.9687C33.0068 21.2412 33.0098 21.4961 33.0127 21.7217C33.0127 21.8008 33.0156 21.8711 33.0156 21.9297V22.0703ZM19.3926 25.9258L26.1895 21.9707L19.3926 18.0742V25.9258Z" fill="#181818"/>
</svg>
